<!--?xml version="1.0" encoding="utf-8"?-->
<!-- Generator: Adobe Illustrator 18.1.1, SVG Export Plug-In . SVG Version: 6.00 Build 0)  -->

<svg version="1.1" id="_x31_0" xmlns="http://www.w3.org/2000/svg" xmlns:xlink="http://www.w3.org/1999/xlink" x="0px" y="0px" viewBox="0 0 512 512" style="width: 256px; height: 256px; opacity: 1;" xml:space="preserve">
<style type="text/css">
	.st0{fill:#374149;}
</style>
<g>
	<path class="st0" d="M339.97,421.539c0.078-0.039,0.156-0.07,0.234-0.11c2.191-1.102,4.274-2.363,6.286-3.778
		c0.066-0.046,0.136-0.098,0.202-0.144c8.106-5.766,14.668-13.852,18.203-23.958l28.641-80.254l14.156-39.434
		c-0.027,0.004-0.058,0.008-0.09,0.012l0.062-0.168c-8.527,1.484-17.285,2.277-26.242,2.277c-25.161,0-48.875-6.25-69.754-17.164
		c-1.234-0.656-2.492-1.262-3.707-1.953l-0.004,0.023c-0.046-0.027-0.098-0.05-0.144-0.074l-37.016,103.817
		c-7.836,22.394,1.278,46.598,20.574,58.683C300.478,471.871,346.291,512,401.408,512h3.309v-16.527h-3.309
		c-36.074,0-67.422-20.207-83.57-49.856c-3.278-6.062-5.98-12.511-7.902-19.343C320.427,427.969,330.849,426.07,339.97,421.539z" style="fill: rgb(86, 86, 86);"></path>
	<path class="st0" d="M505.244,109.183C498.256,51.722,450.872,5.882,393.236,0.546c-25.984-2.402-50.554,3.223-71.492,14.684
		c-46.414,25.402-96.442,43.535-149.027,49.359L128.4,69.5c-3.836,0.422-6.722,3.683-6.679,7.539l1.003,89
		c0.043,3.926,3.114,7.156,7.035,7.402l140.973,8.808c10.574,20.329,26.606,37.383,46.106,49.246
		c18.84,11.469,40.954,18.047,64.586,18.047c12.789,0,25.183-1.95,36.82-5.551C473.802,226.816,512.865,171.836,505.244,109.183z
		 M393.103,178.89c-0.293,0.062-0.598,0.094-0.89,0.149c-1.379,0.266-2.766,0.508-4.18,0.672V69.805
		c27.465,3.274,48.75,26.641,48.75,54.969c0,26.539-18.688,48.726-43.637,54.109C393.13,178.882,393.119,178.89,393.103,178.89z
		 M374.81,168.211l-0.016,11.523c-27.457-3.282-48.734-26.641-48.734-54.961c0-28.328,21.286-51.695,48.75-54.969V168.211z" style="fill: rgb(86, 86, 86);"></path>
	<polygon class="st0" points="5.947,85.828 5.986,85.898 5.806,85.898 13.806,101.66 89.325,101.66 89.325,85.898 32.049,85.898 	
		" style="fill: rgb(86, 86, 86);"></polygon>
	<polygon class="st0" points="20.029,113.43 20.064,113.5 19.885,113.5 27.966,129.34 89.325,129.34 89.325,113.5 41.721,113.5 	" style="fill: rgb(86, 86, 86);"></polygon>
	<polygon class="st0" points="34.111,141.106 34.146,141.18 33.966,141.18 42.049,156.938 89.325,156.938 89.325,141.18 
		51.553,141.18 	" style="fill: rgb(86, 86, 86);"></polygon>
</g>
</svg>
