<!--?xml version="1.0" encoding="utf-8"?-->
<!-- Generator: Adobe Illustrator 18.0.0, SVG Export Plug-In . SVG Version: 6.00 Build 0)  -->

<svg version="1.1" id="_x31_0" xmlns="http://www.w3.org/2000/svg" xmlns:xlink="http://www.w3.org/1999/xlink" x="0px" y="0px" viewBox="0 0 512 512" style="width: 256px; height: 256px; opacity: 1;" xml:space="preserve">
<style type="text/css">
	.st0{fill:#374149;}
</style>
<g>
	<path class="st0" d="M200.203,263.738V430.18c-5.75-2.059-12.042-3.203-18.648-3.203c-27.035,0-48.95,19.035-48.95,42.511
		c0,23.477,21.914,42.512,48.95,42.512s48.949-19.035,48.949-42.512v-164.14l169.387-13.962v104.875
		c-5.75-2.062-12.043-3.203-18.649-3.203c-27.035,0-48.953,19.031-48.953,42.508c0,23.481,21.918,42.512,48.953,42.512
		c27.035,0,48.95-19.031,48.95-42.512v-146.68v-44.109l-30.297,2.5L200.203,263.738z" style="fill: rgb(86, 86, 86);"></path>
	<path class="st0" d="M182.227,86.066c2.137,2.633,4.519,5.379,7.277,8.285c51.406,54.25,25.813,66.469,16.52,88.039
		c-0.699,1.626,1.23,3.137,2.707,2.16c52.304-34.574,7.633-97.582-3.863-113.434c-6.883-9.496-9.118-19.113-9.742-25.886
		l3.824-12.102l-24.41-7.711l-51.871,164.203c-4.64-3.793-10.144-6.867-16.367-8.832c-23.101-7.301-46.965,3.047-53.304,23.11
		c-6.336,20.062,7.254,42.242,30.355,49.539c23.102,7.301,46.969-3.047,53.305-23.11L182.227,86.066z" style="fill: rgb(86, 86, 86);"></path>
	<path class="st0" d="M460.559,66.086v-32.59l-30.153,3.496V0h-17.55v39.027l-29.527,3.422V10.863h-17.551v33.621l-30.152,3.497
		v32.594l30.152-3.496v43.453l-30.152,3.496v32.594l30.152-3.496v36.992h17.551V151.09l29.527-3.426v31.59h17.55v-33.621
		l30.153-3.496v-32.594l-30.153,3.496V69.586L460.559,66.086z M412.856,115.074l-29.527,3.426V75.043l29.527-3.426V115.074z" style="fill: rgb(86, 86, 86);"></path>
</g>
</svg>
