<!--?xml version="1.0" encoding="utf-8"?-->
<!-- Generator: Adobe Illustrator 18.1.1, SVG Export Plug-In . SVG Version: 6.00 Build 0)  -->

<svg version="1.1" id="_x31_0" xmlns="http://www.w3.org/2000/svg" xmlns:xlink="http://www.w3.org/1999/xlink" x="0px" y="0px" viewBox="0 0 512 512" style="width: 256px; height: 256px; opacity: 1;" xml:space="preserve">
<style type="text/css">
	.st0{fill:#374149;}
</style>
<g>
	<path class="st0" d="M0,74.367v330.398h77.07v12.824c0,11.07,8.973,20.043,20.039,20.043h5.652c11.07,0,20.043-8.973,20.043-20.043
		v-12.824h266.394v12.824c0,11.07,8.973,20.043,20.043,20.043h5.652c11.066,0,20.039-8.973,20.039-20.043v-12.824H512V74.367H0z
		 M397.07,332.062c0,15.102-12.258,27.363-27.359,27.363H72.707c-15.102,0-27.363-12.262-27.363-27.363V147.07
		c0-15.062,12.262-27.359,27.363-27.359h297.004c15.102,0,27.359,12.297,27.359,27.359V332.062z M418.442,129.566h24.641v24.523
		h-24.641V129.566z M418.442,166.351h24.641v24.524h-24.641V166.351z M418.442,203.137h24.641v24.481h-24.641V203.137z
		 M450.73,329.539c-17.742,0-32.09-14.352-32.09-32.094c0-17.742,14.347-32.094,32.09-32.094c17.707,0,32.098,14.352,32.098,32.094
		C482.828,315.187,468.438,329.539,450.73,329.539z M483.023,227.618h-24.64v-24.481h24.64V227.618z M483.023,190.875h-24.64
		v-24.524h24.64V190.875z M483.023,154.09h-24.64v-24.523h24.64V154.09z" style="fill: rgb(86, 86, 86);"></path>
	<path class="st0" d="M369.711,139.422h-46.09l-93.242,103.379l-0.282,0.313l-14.629-13.168l48.875-54.234l32.703-36.129h-0.145
		l0.145-0.161h-52.242L120.066,277.828l-0.481,0.535l-14.668-13.211l67.801-75.202l45.551-50.367h-0.145l0.145-0.161H72.707
		c-4.219,0-7.653,3.43-7.653,7.649v184.992c0,4.219,3.434,7.649,7.653,7.649h297.004c4.218,0,7.648-3.43,7.648-7.649V147.07
		C377.359,142.851,373.93,139.422,369.711,139.422z" style="fill: rgb(86, 86, 86);"></path>
</g>
</svg>
