<!--?xml version="1.0" encoding="utf-8"?-->
<!-- Generator: Adobe Illustrator 19.2.1, SVG Export Plug-In . SVG Version: 6.00 Build 0)  -->
<svg version="1.1" id="_x31_0" xmlns="http://www.w3.org/2000/svg" xmlns:xlink="http://www.w3.org/1999/xlink" x="0px" y="0px" viewBox="0 0 512 512" style="width: 256px; height: 256px; opacity: 1;" xml:space="preserve">
<style type="text/css">
	.st0{fill:#374149;}
</style>
<g>
	<path class="st0" d="M154.797,256.215c0,55.809,45.398,101.203,101.203,101.203c55.809,0,101.203-45.394,101.203-101.203
		c0-55.801-45.394-101.203-101.203-101.203C200.195,155.012,154.797,200.414,154.797,256.215z" style="fill: rgb(75, 75, 75);"></path>
	<path class="st0" d="M300.691,392.356c-0.05,0.015-0.106,0.027-0.16,0.046l0.11-0.199c-14.062,4.633-29.043,7.223-44.641,7.223
		c-65.711,0-121.082-44.547-137.867-104.985L59.848,193.68l-31.321-54.316c-0.015,0.031-0.031,0.062-0.046,0.094l-0.098-0.168
		C10.289,174.364,0,214.102,0,256.215c0,133.68,103.008,243.687,233.805,254.981l38.386-68.336L300.691,392.356z" style="fill: rgb(75, 75, 75);"></path>
	<path class="st0" d="M163.938,146.731c0.562-0.477,1.09-0.993,1.66-1.462c2.149-1.754,4.41-3.374,6.66-5.007
		c1.016-0.734,1.989-1.531,3.024-2.238c2.21-1.516,4.515-2.894,6.816-4.289c1.118-0.68,2.195-1.418,3.332-2.066
		c2.922-1.665,5.93-3.188,8.977-4.645c0.531-0.254,1.039-0.554,1.574-0.805c18.262-8.473,38.594-13.207,60.019-13.207
		c12.883,0,25.309,1.863,37.195,5.07l115.906,0.434l62.554,0.32c-0.015-0.031-0.039-0.058-0.058-0.086h0.195
		c-14.57-22.789-32.676-43.094-53.484-60.226c-0.102-0.082-0.207-0.16-0.309-0.242c-3.942-3.234-7.969-6.359-12.102-9.355
		c-0.543-0.398-1.114-0.758-1.66-1.149c-3.754-2.679-7.555-5.289-11.454-7.766c-0.554-0.351-1.129-0.668-1.683-1.015
		c-3.973-2.481-7.992-4.883-12.106-7.149c-0.207-0.117-0.426-0.218-0.637-0.332C341.988,11.605,300.317,0.219,256,0.219
		c-85.902,0-162,42.574-208.457,107.683l68.461,118.356C122.77,194.621,140.047,166.868,163.938,146.731z" style="fill: rgb(75, 75, 75);"></path>
	<path class="st0" d="M489.34,151.113l-78.914-0.297l-57.942-0.332c0.043,0.039,0.078,0.082,0.118,0.118h-0.226
		c28.695,26.202,46.832,63.785,46.832,105.613c0,39.477-16.055,75.27-41.977,101.203l-86.703,154.363
		C404.953,504.223,512,392.5,512,256.215C512,218.766,503.851,183.207,489.34,151.113z" style="fill: rgb(75, 75, 75);"></path>
</g>
</svg>
