<!--?xml version="1.0" encoding="utf-8"?-->
<!-- Generator: Adobe Illustrator 19.1.1, SVG Export Plug-In . SVG Version: 6.00 Build 0)  -->
<svg version="1.1" id="_x31_0" xmlns="http://www.w3.org/2000/svg" xmlns:xlink="http://www.w3.org/1999/xlink" x="0px" y="0px" viewBox="0 0 512 512" style="width: 256px; height: 256px; opacity: 1;" xml:space="preserve">
<style type="text/css">
	.st0{fill:#374149;}
</style>
<g>
	<path class="st0" d="M100.328,164.824l21.461,21.461l37.11,37.157l9.382,9.378v55.598v45.325l-0.003,0.141h0.003v0.156h175.438
		v-45.664V232.82l9.383-9.378l38.668-38.668l19.902-19.95c3.617-3.613,7.504-6.774,11.668-9.519
		c9.246-6.039,19.679-9.883,30.706-11.301c1.602-35.465-10.57-70.379-34.23-97.286C393.691,17.023,355.984,0,316.449,0H196.926
		c-39.539,0-77.242,17.066-103.371,46.718c-23.703,26.954-35.875,61.958-34.226,97.469c11.117,1.602,21.598,5.766,30.793,12.126
		C93.739,158.828,97.168,161.668,100.328,164.824z M307.203,167.114c5.902,0,10.707,4.804,10.707,10.706
		c0,5.902-4.805,10.707-10.707,10.707c-5.902,0-10.707-4.805-10.707-10.707C296.496,171.918,301.301,167.114,307.203,167.114z
		 M307.203,111.973c-5.902,0-10.707-4.762-10.707-10.664s4.805-10.707,10.707-10.707c5.902,0,10.707,4.805,10.707,10.707
		S313.106,111.973,307.203,111.973z M206.168,90.602c5.902,0,10.707,4.805,10.707,10.707s-4.805,10.664-10.707,10.664
		c-5.902,0-10.707-4.762-10.707-10.664S200.266,90.602,206.168,90.602z M206.168,167.114c5.902,0,10.707,4.804,10.707,10.706
		c0,5.902-4.805,10.707-10.707,10.707c-5.902,0-10.707-4.805-10.707-10.707C195.461,171.918,200.266,167.114,206.168,167.114z" style="fill: rgb(86, 86, 86);"></path>
	<polygon class="st0" points="153.59,480.469 153.411,464.61 153.411,464.386 153.407,464.386 153.407,464.226 131.903,464.453 
		106.137,464.73 106.278,480.469 106.598,512 153.535,511.5 153.75,511.5 153.75,511.496 153.911,511.496 	" style="fill: rgb(86, 86, 86);"></polygon>
	<polygon class="st0" points="405.586,480.469 405.407,464.61 405.407,464.386 405.403,464.386 405.403,464.226 383.899,464.453 
		358.137,464.73 358.27,480.469 358.59,512 405.531,511.5 405.746,511.5 405.746,511.496 405.907,511.496 	" style="fill: rgb(86, 86, 86);"></polygon>
	<path class="st0" d="M492.316,187.531c-0.754-0.746-1.535-1.457-2.339-2.141c-1.586-1.343-3.223-2.546-4.946-3.613
		c-0.625-0.387-1.262-0.746-1.902-1.098c-1.953-1.07-3.942-1.973-6.008-2.699c-0.617-0.219-1.242-0.414-1.871-0.602
		c-2.117-0.633-4.238-1.098-6.41-1.383c-0.707-0.094-1.418-0.164-2.133-0.222c-1.082-0.086-2.153-0.332-3.234-0.332
		c-3.981,0-7.918,0.546-11.715,1.691c-6.359,1.875-12.402,5.309-17.434,10.344l-13.91,13.91l-31.71,31.754l-12.95,12.953v119.981
		H136.246V246.094l-11.437-11.442l-31.758-31.804l-15.374-15.371c-4.668-4.668-10.203-7.965-16.063-9.887
		c-4.206-1.465-8.648-2.148-13.038-2.148c-1.09,0-2.164,0.246-3.25,0.332c-0.711,0.058-1.422,0.129-2.125,0.218
		c-2.195,0.29-4.336,0.758-6.469,1.398c-0.606,0.18-1.211,0.367-1.809,0.578c-2.094,0.734-4.106,1.648-6.078,2.726
		c-0.626,0.344-1.242,0.695-1.852,1.07c-1.734,1.07-3.379,2.278-4.973,3.633c-0.805,0.68-1.582,1.39-2.336,2.133
		c-0.691,0.687-1.48,1.211-2.133,1.957c-14.461,16.473-12.633,41.73,2.883,57.246l33.449,33.449v153.84
		c0,7.965,6.496,14.414,14.458,14.414h375.32c8.008,0,14.457-6.45,14.457-14.414v-153.84l33.45-33.449
		c15.515-15.516,17.344-40.774,2.882-57.246C493.797,188.742,493.008,188.218,492.316,187.531z" style="fill: rgb(86, 86, 86);"></path>
</g>
</svg>
