<!--?xml version="1.0" encoding="utf-8"?-->
<!-- Generator: Adobe Illustrator 18.1.1, SVG Export Plug-In . SVG Version: 6.00 Build 0)  -->

<svg version="1.1" id="_x31_0" xmlns="http://www.w3.org/2000/svg" xmlns:xlink="http://www.w3.org/1999/xlink" x="0px" y="0px" viewBox="0 0 512 512" style="width: 256px; height: 256px; opacity: 1;" xml:space="preserve">
<style type="text/css">
	.st0{fill:#374149;}
</style>
<g>
	<path class="st0" d="M484.963,43.726c-2.321-5.906-6.805-10.558-12.649-13.106l-2.699-1.171c-3.023-1.321-6.215-1.993-9.496-1.993
		c-9.442,0-17.985,5.59-21.774,14.246l-56.722,129.902l-22.965,52.422h0.07l-0.07,0.16h55.106l70.855-162.266
		C487.162,56.094,487.283,49.637,484.963,43.726z" style="fill: rgb(86, 86, 86);"></path>
	<path class="st0" d="M46.006,308.09c0,23.914,13.622,52.902,36.317,76.707c0.973,1.02,1.867,2.082,2.871,3.086
		c1.046,1.042,2.203,2.007,3.289,3.023c2.125,2.008,4.234,4.023,6.496,5.93c0.414,0.344,0.867,0.648,1.282,0.992
		c2.992,2.461,6.05,4.859,9.262,7.118c0.5,0.351,1.046,0.648,1.55,0.992c3.137,2.148,6.321,4.238,9.649,6.156
		c3.226,1.863,6.586,3.539,9.977,5.16c0.629,0.301,1.218,0.668,1.855,0.958c16.703,7.699,35.266,12.328,55.086,12.328h25.469
		c16.824,0,30.73,12.508,32.934,28.73c0.594,4.39,1.051,8.801,1.817,13.164L250.771,512h138.551
		c14.382,0,26.042-11.66,26.042-26.043V308.09H242.342H46.006z" style="fill: rgb(86, 86, 86);"></path>
	<rect x="46.006" y="251.918" class="st0" width="369.359" height="28.086" style="fill: rgb(86, 86, 86);"></rect>
	<path class="st0" d="M50.334,73.106c0-3.242-1.332-6.489-3.66-8.817c-0.363-0.359-0.863-0.507-1.266-0.812
		c-0.469-0.36-0.957-0.672-1.48-0.958c-0.969-0.527-1.946-0.906-3.024-1.16c-0.418-0.102-0.84-0.176-1.273-0.234
		c-1.2-0.164-2.348-0.164-3.547,0c-0.434,0.058-0.859,0.133-1.278,0.234c-1.074,0.254-2.046,0.633-3.015,1.16
		c-0.527,0.286-1.02,0.602-1.489,0.958c-0.402,0.305-0.902,0.453-1.262,0.812c-2.332,2.328-3.66,5.574-3.66,8.817
		c0,3.328,1.328,6.488,3.66,8.816c2.324,2.332,5.489,3.661,8.817,3.661c3.324,0,6.484-1.329,8.816-3.661
		C49.002,79.594,50.334,76.434,50.334,73.106z" style="fill: rgb(86, 86, 86);"></path>
	<path class="st0" d="M146.69,45.578c3.238,0,6.402-1.161,8.898-3.657c4.824-4.828,4.824-12.726-0.082-17.633
		c-0.382-0.378-0.878-0.535-1.297-0.855c-0.484-0.379-0.988-0.711-1.519-1.008c-0.93-0.515-1.863-0.898-2.875-1.156
		c-0.473-0.121-0.946-0.211-1.43-0.278c-1.129-0.152-2.211-0.152-3.34,0c-0.481,0.066-0.953,0.157-1.422,0.274
		c-1.027,0.262-1.973,0.649-2.918,1.168c-0.527,0.293-1.027,0.621-1.507,0.988c-0.43,0.325-0.934,0.481-1.329,0.867
		c-4.824,4.906-4.824,12.805,0,17.715C140.365,44.418,143.526,45.578,146.69,45.578z" style="fill: rgb(86, 86, 86);"></path>
	<path class="st0" d="M46.787,45.664c3.16,0,6.406-1.164,8.82-3.66c4.906-4.824,4.906-12.726,0-17.633
		c-4.906-4.906-12.726-4.906-17.637,0c-4.906,4.906-4.906,12.809,0,17.633C40.385,44.5,43.631,45.664,46.787,45.664z" style="fill: rgb(86, 86, 86);"></path>
	<path class="st0" d="M96.698,24.953c0.034,0,0.046,0,0.082,0c6.82,0,12.477-5.574,12.477-12.476C109.174,5.574,103.599,0,96.698,0
		c-6.906,0-12.395,5.574-12.395,12.477S89.877,24.953,96.698,24.953z" style="fill: rgb(86, 86, 86);"></path>
	<path class="st0" d="M255.045,24.953c6.82,0,12.394-5.574,12.394-12.476S261.865,0,254.963,0c-6.906,0-12.477,5.574-12.477,12.477
		S248.142,24.953,255.045,24.953z" style="fill: rgb(86, 86, 86);"></path>
	<path class="st0" d="M304.955,45.578c3.238,0,6.402-1.161,8.816-3.657c4.906-4.828,4.906-12.726,0-17.633
		c-0.382-0.382-0.878-0.538-1.297-0.859c-0.484-0.375-0.988-0.707-1.515-1.004c-0.934-0.515-1.867-0.898-2.883-1.16
		c-0.469-0.117-0.942-0.207-1.426-0.274c-1.129-0.152-2.211-0.152-3.34,0c-0.48,0.066-0.953,0.157-1.422,0.274
		c-1.027,0.262-1.973,0.649-2.918,1.168c-0.527,0.293-1.027,0.621-1.511,0.988c-0.426,0.325-0.93,0.485-1.321,0.867
		c-4.828,4.906-4.828,12.805,0,17.715C298.631,44.418,301.791,45.578,304.955,45.578z" style="fill: rgb(86, 86, 86);"></path>
	<path class="st0" d="M205.053,45.664c3.16,0,6.406-1.164,8.82-3.66c4.906-4.824,4.906-12.726,0-17.633s-12.726-4.906-17.637,0
		c-4.906,4.906-4.906,12.809,0,17.633C198.65,44.5,201.897,45.664,205.053,45.664z" style="fill: rgb(86, 86, 86);"></path>
	<path class="st0" d="M320.026,62.519c-0.969-0.527-1.946-0.906-3.02-1.16c-0.418-0.102-0.84-0.176-1.274-0.234
		c-1.199-0.164-2.351-0.164-3.55,0c-0.434,0.058-0.851,0.133-1.274,0.234c-1.074,0.254-2.05,0.633-3.019,1.16
		c-0.524,0.286-1.016,0.602-1.485,0.958c-0.402,0.305-0.902,0.453-1.266,0.812c-2.328,2.328-3.656,5.574-3.656,8.817
		c0,3.328,1.328,6.488,3.656,8.816c2.328,2.332,5.574,3.661,8.821,3.661c3.324,0,6.484-1.329,8.816-3.661
		c2.328-2.328,3.66-5.488,3.66-8.816c0-3.242-1.332-6.489-3.66-8.817c-0.363-0.359-0.863-0.507-1.266-0.812
		C321.041,63.121,320.549,62.805,320.026,62.519z" style="fill: rgb(86, 86, 86);"></path>
	<path class="st0" d="M175.908,88.09c6.902,0,12.477-5.574,12.477-12.476c0-6.906-5.574-12.477-12.477-12.477
		c-6.906,0-12.477,5.57-12.477,12.477C163.431,82.516,169.002,88.09,175.908,88.09z" style="fill: rgb(86, 86, 86);"></path>
	<path class="st0" d="M175.908,179.05c3.238,0,6.485-1.332,8.817-3.66c2.328-2.332,3.66-5.574,3.66-8.816
		c0-3.246-1.332-6.489-3.66-8.821c-0.363-0.363-0.863-0.511-1.27-0.816c-0.465-0.355-0.954-0.668-1.473-0.95
		c-0.973-0.527-1.953-0.91-3.031-1.168c-0.414-0.098-0.836-0.171-1.266-0.23c-1.203-0.164-2.355-0.164-3.558,0
		c-0.43,0.059-0.848,0.133-1.266,0.23c-1.074,0.258-2.055,0.641-3.028,1.164c-0.519,0.286-1.011,0.602-1.476,0.954
		c-0.406,0.309-0.906,0.453-1.266,0.816c-2.332,2.332-3.661,5.574-3.661,8.821c0,3.242,1.329,6.484,3.661,8.816
		C169.416,177.718,172.662,179.05,175.908,179.05z" style="fill: rgb(86, 86, 86);"></path>
	<path class="st0" d="M175.908,133.614c6.902,0,12.477-5.574,12.477-12.477c0-6.906-5.574-12.481-12.477-12.481
		c-6.906,0-12.477,5.574-12.477,12.481C163.431,128.039,169.002,133.614,175.908,133.614z" style="fill: rgb(86, 86, 86);"></path>
</g>
</svg>
