<?xml version="1.0" encoding="utf-8"?>
<!-- Generator: Adobe Illustrator 18.1.1, SVG Export Plug-In . SVG Version: 6.00 Build 0)  -->
<!DOCTYPE svg PUBLIC "-//W3C//DTD SVG 1.1//EN" "http://www.w3.org/Graphics/SVG/1.1/DTD/svg11.dtd">
<svg version="1.1" id="_x31_0" xmlns="http://www.w3.org/2000/svg" xmlns:xlink="http://www.w3.org/1999/xlink" x="0px" y="0px"
	 viewBox="0 0 512 512" style="enable-background:new 0 0 512 512;" xml:space="preserve">
<style type="text/css">
	.st0{fill:#374149;}
</style>
<g>
	<path class="st0" d="M496.941,113.541c-19.238-32.402-54.554-52.504-92.242-52.504c-19.234,0-38.078,5.203-54.633,15.054
		c-20.734,12.301-36.343,30.594-45.015,52.985l-4.258,10.718l79.152,133.316l11.434,1.418c4.492,0.629,9.062,0.867,13.558,0.867
		c19.157,0,38-5.203,54.555-14.981c24.598-14.586,42.019-37.922,49.113-65.671C515.702,166.994,511.605,138.139,496.941,113.541z
		 M439.308,226.513c-10.801,6.387-22.781,9.699-35.554,9.462l-58.969-99.332c5.754-11.039,14.426-20.184,25.382-26.649
		c10.489-6.226,22.391-9.539,34.531-9.539c23.809,0,46.199,12.696,58.34,33.192c9.222,15.609,11.902,33.82,7.41,51.32
		C465.957,202.548,454.918,217.291,439.308,226.513z"/>
	<polygon class="st0" points="106.778,335.131 103.48,329.654 103.449,329.685 103.363,329.544 91.488,342.115 102.828,360.689 
		115.742,357.009 119.344,356.029 119.32,355.99 119.48,355.943 	"/>
	<path class="st0" d="M83.785,352.478l-32.5,19.726c-11.965,7.262-13.304,19.77-14.382,29.825
		c-1.121,10.457-2.153,17.078-8.918,21.187l-27.629,16.77l-0.218,0.129v0.004L0,440.2l6.57,10.762l27.984-16.989
		c12.473-7.57,13.844-20.371,14.946-30.652c1.086-10.137,2.07-16.543,8.355-20.355l32.356-19.641l0.003-0.004l0,0l0.137-0.082
		L83.785,352.478z"/>
	<polygon class="st0" points="289.058,172.283 288.43,171.26 289.038,172.295 109.457,315.365 135.078,358.646 320.851,280.615 
		346.957,269.674 346.945,269.654 347.098,269.592 	"/>
	<path class="st0" d="M404.679,116.228c-9.278,0-18.434,2.52-26.461,7.289c-4.707,2.79-8.676,6.371-12.191,10.333
		c-0.898,0.968-1.922,1.839-2.75,2.859c0.008,0.004,0.09,0.015,0.102,0.019c-0.039,0.051-0.09,0.09-0.129,0.141
		c0,0,93.336,16.781,86.254,4.844C440.023,125.756,423.273,116.228,404.679,116.228z"/>
</g>
</svg>
