<?xml version="1.0" encoding="utf-8"?>
<!-- Generator: Adobe Illustrator 19.1.1, SVG Export Plug-In . SVG Version: 6.00 Build 0)  -->
<svg version="1.1" id="_x31_0" xmlns="http://www.w3.org/2000/svg" xmlns:xlink="http://www.w3.org/1999/xlink" x="0px" y="0px"
	 viewBox="0 0 512 512" style="enable-background:new 0 0 512 512;" xml:space="preserve">
<style type="text/css">
	.st0{fill:#374149;}
</style>
<g>
	<path class="st0" d="M254.444,313.934c13.984,0,27.496-5.086,37.985-14.222c24-21.141,26.461-57.934,5.484-81.934
		c-10.969-12.558-26.782-19.707-43.629-19.707c-14.067,0-27.574,5.082-38.145,14.301c-11.524,10.176-18.516,24.238-19.551,39.734
		c-1.031,15.418,3.973,30.36,14.226,42.04C221.779,306.704,237.674,313.934,254.444,313.934z M236.959,236.133
		c9.379-8.262,23.442-8.742,33.375-1.196c1.434,1.118,2.703,2.309,3.894,3.657c4.61,5.328,6.914,12.164,6.516,19.156
		c-0.554,7.07-3.653,13.43-8.977,18.118c-5.008,4.293-11.207,6.515-17.406,6.515c-5.402,0-10.809-1.586-15.418-4.926l-1.114-0.875
		c-1.27-0.953-2.305-1.984-3.414-3.258C224.881,262.438,225.912,245.668,236.959,236.133z"/>
	<path class="st0" d="M351.37,491.349c6.886-2.801,13.687-5.793,20.289-9.176h-0.332c0.11-0.058,0.222-0.106,0.332-0.16H292.35
		c-13.274,0-24.477-9.457-27.102-22.094c-3.496,0.238-7.07,0.316-10.566,0.316c-59.047,0-115.154-25.43-153.934-69.774
		C64.747,349.38,47.025,296.77,50.841,242.094c3.578-54.36,28.051-104.028,68.981-139.864
		c37.032-32.508,84.712-50.466,134.302-50.466c59.442,0,115.552,25.352,153.853,69.375v0.082
		c44.73,51.13,59.274,118.638,45.078,180.529c-0.965,4.129-2.051,8.246-3.278,12.343h0.043c-0.016,0.055-0.027,0.106-0.043,0.16
		h52.134c18.039-77.406,0-162.04-56.028-226.09C398.042,33.088,328.19,1.46,254.123,1.46c-61.824,0-121.27,22.332-167.52,62.938
		c-51.02,44.665-81.536,106.65-85.985,174.361c-4.688,68.024,17.402,133.665,62.301,184.845
		c48.238,55.23,118.173,86.938,191.763,86.938C288.174,510.54,320.991,503.888,351.37,491.349z"/>
	<path class="st0" d="M174.893,256.036c0-13.801,3.594-27.528,10.637-39.754c0.637-1.098,1.355-2.16,2.046-3.234
		c0.969-1.508,1.985-2.969,3.043-4.398c1.523-2.054,3.16-4.055,4.906-5.985c1.16-1.281,2.359-2.511,3.598-3.71
		c0.949-0.914,1.863-1.852,2.867-2.727c3.957-3.445,8.195-6.465,12.582-8.984v-0.07l-48.165-83.391
		c-27.386,15.746-49.242,38.176-64.336,64.34c-15.086,26.137-23.294,55.974-23.602,86.552c-0.008,0.402-0.047,0.8-0.047,1.202h0.004
		c0,0.055-0.004,0.11-0.004,0.161H174.893z"/>
	<path class="st0" d="M352.507,387.599c-0.161-1.11-0.398-1.985-0.637-2.778c-0.238-0.637-0.633-1.274-1.031-1.828
		c-1.75-2.145-4.294-3.176-7.711-3.176h-7.367l-0.02-0.004v0.004h-0.16v36.633h7.547c3.418,0,5.961-1.035,7.629-3.179
		c0.481-0.637,0.875-1.195,1.114-1.906c0.238-0.715,0.476-1.668,0.637-2.786c0.16-1.187,0.316-2.617,0.316-4.289
		c0.082-1.746,0.082-3.816,0.082-6.199c0-2.383,0-4.45-0.082-6.199C352.823,390.224,352.667,388.794,352.507,387.599z"/>
	<path class="st0" d="M502.465,332.532h-5.562h-53.403H292.35c-5.168,0-9.458,4.207-9.458,9.454v112.211
		c0,1.434,0.317,2.786,0.875,3.977c1.508,3.254,4.766,5.558,8.582,5.558h109.348h100.766c5.246,0,9.535-4.293,9.535-9.535V341.985
		C512,336.739,507.711,332.532,502.465,332.532z M367.925,405.083c0,2.149-0.16,4.059-0.398,5.883
		c-0.238,1.828-0.714,3.574-1.274,5.168c-0.554,1.586-1.347,3.098-2.382,4.527c-2.305,3.258-5.086,5.722-8.344,7.309
		c-3.18,1.515-6.992,2.305-11.363,2.305h-23.684v-64.29h23.684c4.371,0,8.183,0.715,11.363,2.305
		c3.258,1.511,6.039,3.977,8.344,7.234c1.035,1.43,1.828,2.938,2.382,4.527c0.559,1.59,1.035,3.34,1.274,5.164
		c0.238,1.828,0.398,3.817,0.398,5.961c0.078,2.07,0.078,4.371,0.078,6.914C368.003,400.634,368.003,402.939,367.925,405.083z
		 M407.816,430.275h-11.203l-6.914-21.059l-14.305-43.23h15.734l9.934,32.266l0.594,1.989l0.367,1.699l0.07-0.227l0.082,0.278
		l2.226-7.234l8.898-28.77h13.114h2.152l0.535,0.039L407.816,430.275z M486.176,405.083c0,2.149-0.161,4.059-0.399,5.883
		c-0.238,1.828-0.714,3.574-1.273,5.168c-0.555,1.586-1.348,3.098-2.383,4.527c-2.305,3.258-5.086,5.722-8.344,7.309
		c-3.179,1.515-6.992,2.305-11.363,2.305h-22.41h-1.273v-64.29h23.683c4.371,0,8.184,0.715,11.363,2.305
		c2.465,1.117,4.61,2.785,6.516,4.93c0.637,0.715,1.274,1.508,1.828,2.305c1.035,1.43,1.828,2.938,2.383,4.527
		c0.558,1.59,1.035,3.34,1.273,5.164c0.238,1.828,0.399,3.817,0.399,5.961c0.078,2.07,0.078,4.371,0.078,6.914
		C486.253,400.634,486.253,402.939,486.176,405.083z"/>
	<path class="st0" d="M470.917,389.751c0-0.797-0.082-1.515-0.16-2.152c-0.16-1.11-0.398-1.985-0.637-2.778
		c-0.238-0.637-0.637-1.274-1.031-1.828c-1.75-2.145-4.293-3.176-7.711-3.176h-7.367l-0.019-0.004v0.004h-0.16v34.406v2.226h7.546
		c3.418,0,5.961-1.035,7.633-3.179c0.473-0.637,0.871-1.195,1.11-1.906c0.238-0.715,0.477-1.668,0.637-2.786
		c0.16-1.187,0.238-2.617,0.316-4.289c0.082-1.746,0.082-3.816,0.082-6.199c0-2.383,0-4.45-0.082-6.199
		C471.073,391.099,470.996,390.384,470.917,389.751z"/>
</g>
</svg>
