<?xml version="1.0" encoding="utf-8"?>
<!-- Generator: Adobe Illustrator 18.1.1, SVG Export Plug-In . SVG Version: 6.00 Build 0)  -->
<!DOCTYPE svg PUBLIC "-//W3C//DTD SVG 1.1//EN" "http://www.w3.org/Graphics/SVG/1.1/DTD/svg11.dtd">
<svg version="1.1" id="_x31_0" xmlns="http://www.w3.org/2000/svg" xmlns:xlink="http://www.w3.org/1999/xlink" x="0px" y="0px"
	 viewBox="0 0 512 512" style="enable-background:new 0 0 512 512;" xml:space="preserve">
<style type="text/css">
	.st0{fill:#374149;}
</style>
<g>
	<path class="st0" d="M386.438,55.424H125.602C56.336,55.424,0,111.795,0,181.026c0,69.266,56.336,125.598,125.602,125.598h260.836
		c69.23,0,125.562-56.332,125.562-125.598C512,111.795,455.668,55.424,386.438,55.424z M111.031,186.959l0.078-0.266l0.074,0.309
		l15.578-53.727h17.137l8.328,28.754l7.094,24.969l0.066-0.266l0.09,0.305l13.293-53.762h19.114l4.785,0.043l-26.687,99.402h-18.766
		l-15.867-52.386l-15.902,52.386h-18.77l-21.09-79.09l-5.382-20.356h23.828l7.051,28.801L111.031,186.959z M232.617,165.158v67.562
		h-21.734v-67.562H232.617z M221.676,154.107c-6.809,0-12.387-5.542-12.387-12.39c0-6.847,5.578-12.39,12.387-12.39
		c6.847,0,12.39,5.543,12.39,12.39C234.066,148.565,228.523,154.107,221.676,154.107z M259.332,277.553
		c7.031-10.562,11.18-23.312,11.18-37.043V121.538c0-20.395,15.902-36.95,35.465-36.95v-0.183h80.461
		c53.254,0,96.582,43.367,96.582,96.621s-43.328,96.617-96.582,96.617h-81.863L259.332,277.553z"/>
	<polygon class="st0" points="303.625,133.154 303.625,232.588 326.535,232.588 326.535,193.998 364.062,193.998 364.062,173.307 
		364.062,173.244 364.062,173.244 364.062,173.084 326.535,173.084 326.535,154.065 370.602,154.065 370.602,133.154 	"/>
	<rect x="389.774" y="165.01" class="st0" width="21.707" height="67.578"/>
	<path class="st0" d="M400.562,154.252c6.832,0,12.39-5.558,12.39-12.394s-5.558-12.39-12.39-12.39
		c-6.836,0-12.394,5.554-12.394,12.39S393.726,154.252,400.562,154.252z"/>
	<polygon class="st0" points="82.594,358.15 82.594,456.115 82.594,456.416 82.594,456.416 82.594,456.576 102.645,456.576 
		102.645,416.627 143.172,416.627 143.172,399.482 102.645,399.482 102.645,375.295 150.238,375.295 150.238,358.15 	"/>
	<path class="st0" d="M225.438,414.131c2.492-0.832,4.859-2.008,7.113-3.52c2.258-1.519,4.254-3.363,5.985-5.527
		c1.73-2.168,3.102-4.633,4.114-7.398c1.011-2.758,1.515-5.898,1.515-9.394c0-4.152-0.75-8.043-2.234-11.691
		c-1.496-3.633-3.679-6.817-6.57-9.527c-2.878-2.723-6.39-4.895-10.527-6.504c-4.129-1.61-8.797-2.418-13.984-2.418h-40.242v98.426
		h20.046v-39.262h14.418l20.054,39.262h23.219l-19.688-36.434L225.438,414.131z M209.543,401.283h-18.891v-25.988h18.891
		c4.426,0,7.961,1.195,10.606,3.59c2.64,2.394,3.968,5.535,3.968,9.406c0,3.867-1.328,6.996-3.968,9.394
		C217.504,400.08,213.969,401.283,209.543,401.283z"/>
	<polygon class="st0" points="268.707,358.15 268.707,456.576 336.351,456.576 336.351,439.432 288.758,439.432 288.758,415.514 
		329.285,415.514 329.285,398.381 288.758,398.381 288.758,375.295 336.351,375.295 336.351,358.15 	"/>
	<polygon class="st0" points="361.766,358.15 361.766,456.576 429.41,456.576 429.41,439.432 381.813,439.432 381.813,415.514 
		422.344,415.514 422.344,398.381 381.813,398.381 381.813,375.295 429.41,375.295 429.41,358.15 	"/>
</g>
</svg>
