<?xml version="1.0" encoding="utf-8"?>
<!-- Generator: Adobe Illustrator 18.1.1, SVG Export Plug-In . SVG Version: 6.00 Build 0)  -->
<!DOCTYPE svg PUBLIC "-//W3C//DTD SVG 1.1//EN" "http://www.w3.org/Graphics/SVG/1.1/DTD/svg11.dtd">
<svg version="1.1" id="_x31_0" xmlns="http://www.w3.org/2000/svg" xmlns:xlink="http://www.w3.org/1999/xlink" x="0px" y="0px"
	 viewBox="0 0 512 512" style="enable-background:new 0 0 512 512;" xml:space="preserve">
<style type="text/css">
	.st0{fill:#374149;}
</style>
<g>
	<path class="st0" d="M507.164,80.02H4.836C2.164,80.02,0,82.184,0,84.856v314.672c0,2.672,2.164,4.836,4.836,4.836H69.43
		c0.465,15.281,13.031,27.617,28.39,27.617h5.898c15.36,0,28.004-12.336,28.469-27.617H391.91
		c0.469,15.281,13.113,27.617,28.473,27.617h5.894c15.359,0,27.926-12.336,28.39-27.617h52.496c2.668,0,4.836-2.164,4.836-4.836
		V84.856C512,82.184,509.832,80.02,507.164,80.02z M391.602,355.879H48.484V128.504h88.375l62.394,0.11L73.383,254.488l-0.274,0.274
		l-0.114,0.113l14.234,14.309l0.004,0.004l0.114,0.114l140.801-140.798h38.507l27.012,0.11l-93.434,93.359l-0.446,0.438h0.004
		l-0.113,0.114l14.43,14.43l108.371-108.45h69.121V355.879z M415.106,128.504h25.445v25.367h-25.445V128.504z M415.106,166.512
		h25.445v25.371h-25.445V166.512z M415.106,204.528h25.445v25.289h-25.445V204.528z M448.386,335.164
		c-18.308,0-33.125-14.817-33.125-33.203c0-18.309,14.817-33.122,33.125-33.122c18.387,0,33.203,14.813,33.203,33.122
		C481.59,320.348,466.774,335.164,448.386,335.164z M481.746,229.816h-25.446v-25.289h25.446V229.816z M481.746,191.883h-25.446
		v-25.371h25.446V191.883z M481.746,153.871h-25.446v-25.367h25.446V153.871z"/>
</g>
</svg>
