<?xml version="1.0" encoding="utf-8"?>
<!-- Generator: Adobe Illustrator 19.1.1, SVG Export Plug-In . SVG Version: 6.00 Build 0)  -->
<svg version="1.1" id="_x31_0" xmlns="http://www.w3.org/2000/svg" xmlns:xlink="http://www.w3.org/1999/xlink" x="0px" y="0px"
	 viewBox="0 0 512 512" style="enable-background:new 0 0 512 512;" xml:space="preserve">
<style type="text/css">
	.st0{fill:#374149;}
</style>
<g>
	<path class="st0" d="M341.424,225.05h-49.02l0.008-0.054c0.129-0.176,0.211-0.347,0.316-0.523
		c10.856-2.809,29.489-8.238,42.114-15.359c18.094-10.203,26.176-23.25,26.176-42.27v-13.36l-4.078-4.078l-2.039-2.039V61.633
		c2.887-4.274,6.118-10.782,6.118-18.863c0-13.934-5.965-25.176-17.321-32.527C333.072,3.348,317.865,0,297.194,0H214.81
		c-20.672,0-35.879,3.348-46.504,10.242c-11.355,7.351-17.324,18.594-17.324,32.527c0,8.082,3.195,14.59,6.121,18.863v85.734
		l-6.121,6.117v13.36c0,19.019,8.046,32.066,26.176,42.27c12.629,7.121,31.262,12.55,42.117,15.359
		c0.094,0.152,0.176,0.309,0.274,0.457l0.031,0.121h-49.004c-24.793,0-44.965,20.172-44.965,44.966V457.07
		c0,18.977,15.438,34.414,34.418,34.414h3.352v13.215c0,4.031,3.27,7.301,7.301,7.301h26.949c4.035,0,7.301-3.27,7.301-7.301
		v-13.215h102.141v13.215c0,4.031,3.266,7.301,7.301,7.301h26.95c4.031,0,7.297-3.27,7.297-7.301v-13.215h3.355
		c18.977,0,34.414-15.437,34.414-34.414V270.016C386.389,245.222,366.217,225.05,341.424,225.05z M287.498,196.504
		c-0.414-5.828,4.122-11.957,11.313-14.606c6.289-2.309,12.754-1.309,16.618,2.094c0,0,0.007,0.004,0.011,0.008
		c1.286,1.137,2.282,2.535,2.887,4.172c2.347,6.351-2.118,13.859-10.008,17.133c-0.039,0.035-0.114,0.035-0.157,0.035
		c-0.808,0.27-1.578,0.539-2.347,0.809h-0.039c-0.914,0.25-1.828,0.418-2.734,0.531c-0.09,0.011-0.179,0.027-0.27,0.038
		c-6.672,0.75-12.758-2.094-14.703-7.422c-0.23-0.621-0.336-1.262-0.438-1.898C287.58,197.102,287.522,196.805,287.498,196.504z
		 M343.951,52.855c-1.52,2.414-3.027,3.848-3.027,3.848v6.414v0.134c-6.73-0.333-13.489-0.446-20.234-0.696
		c-4.157-0.156-8.23-0.293-12.325-0.422c-5.59-0.168-11.168-0.473-16.754-0.578l-39.77,63.981c-1.191,1.926-3.23,2.965-5.351,2.965
		c-1.153,0-2.309-0.309-3.348-0.961c-2.965-1.848-3.813-5.699-2.039-8.664l23.602-37.965L276.9,61.446c-0.031,0-0.062,0-0.094,0
		l0.098-0.161c-7.004-0.074-13.973-0.113-20.902-0.113h-3.504c-0.23,0.652-0.538,1.23-0.926,1.809l-20.98,28.64
		c-1.27,1.696-3.157,2.582-5.078,2.582c-1.309,0-2.621-0.386-3.774-1.234c-2.812-2.039-3.386-6.008-1.309-8.817l10.442-14.191
		l6.383-8.515c-0.039,0-0.082,0.004-0.122,0.004l0.118-0.165c-21.562,0.227-43.234,0.871-64.805,1.91
		c-0.453,0.02-0.914,0.031-1.371,0.051v-6.543c0,0-1.152-1.133-2.457-3.016c-0.18-0.297-0.356-0.574-0.535-0.914
		c29.226-1.496,58.766-2.226,87.918-2.226c23.73,0,47.726,0.617,71.645,1.609C333.076,52.41,338.557,52.535,343.951,52.855z
		 M167.85,156.406l3.226-3.226v-7.469c19.672-1.004,39.461-1.657,59.172-1.926l14.05-0.195c3.887,0,7.813-0.035,11.703-0.035
		c5.965,0,11.934,0.035,17.938,0.118l13.859,0.191c17.711,0.344,35.458,0.961,53.126,1.848v7.469l1.972,1.969l1.223,1.374
		c-29.325-1.574-58.954-2.343-88.118-2.343c-22.078,0-44.398,0.59-66.668,1.484C182.17,155.914,174.955,156.094,167.85,156.406z
		 M152.561,270.016c0-9.973,8.046-18.016,18.015-18.016h50.894h69.062h50.891c9.972,0,18.015,8.043,18.015,18.016V457.07
		c0,4.117-3.347,7.465-7.465,7.465H160.029c-4.121,0-7.468-3.348-7.468-7.465V270.016z"/>
	<path class="st0" d="M180.431,376.297v0.16h151.137V288.34c0-3.234-2.617-5.852-5.851-5.852h-36.57h-66.293h-36.57
		c-3.234,0-5.852,2.618-5.852,5.852v87.691V376.297L180.431,376.297z M294.767,325.414v21.863h-13.703v-21.863h-9.82v-13.707h33.34
		v13.707H294.767z M230.939,325.414v21.863h-13.703v-21.863h-9.82v-13.707h33.34v13.707H230.939z"/>
	<path class="st0" d="M331.568,385.934v-0.16H180.431v20.445c0,3.231,2.618,5.852,5.852,5.852h139.434
		c3.234,0,5.851-2.621,5.851-5.852v-20.222l0.004-0.062H331.568z"/>
</g>
</svg>
