<?xml version="1.0" encoding="utf-8"?>
<!-- Generator: Adobe Illustrator 18.1.1, SVG Export Plug-In . SVG Version: 6.00 Build 0)  -->
<!DOCTYPE svg PUBLIC "-//W3C//DTD SVG 1.1//EN" "http://www.w3.org/Graphics/SVG/1.1/DTD/svg11.dtd">
<svg version="1.1" id="_x31_0" xmlns="http://www.w3.org/2000/svg" xmlns:xlink="http://www.w3.org/1999/xlink" x="0px" y="0px"
	 viewBox="0 0 512 512" style="enable-background:new 0 0 512 512;" xml:space="preserve">
<style type="text/css">
	.st0{fill:#374149;}
</style>
<g>
	<path class="st0" d="M507.233,58.481c-6.688-17.034-19.578-30.414-36.297-37.667l-2.458-1.086
		c-8.835-3.874-18.062-5.808-27.546-5.808c-27.168,0-51.758,16.086-62.652,40.98l-70.805,162.159H230.98H39.187h-18.39
		C9.313,217.058,0,226.367,0,237.852v18.394c0,92.124,94.988,166.311,173.632,166.311h18.969c0.34,2.63,0.73,5.489,1.254,8.481
		l6.754,38.648l5.668,32.442h32.934h138.671c33.855,0,61.3-27.446,61.3-61.305V264.426l67.058-153.589
		C513.561,94.114,513.916,75.509,507.233,58.481z M144.042,378.75c-0.898-0.266-1.793-0.523-2.687-0.809
		c-14.774-4.766-30.02-12.442-44.094-22.469c-0.176-0.129-0.36-0.254-0.539-0.382c-1.047-0.75-2.07-1.539-3.106-2.317
		c-0.992-0.758-1.996-1.504-2.973-2.281c-0.183-0.145-0.363-0.293-0.542-0.438c-28.969-23.246-50.914-56.664-50.914-93.808h75.309
		c2.519,14.636,8.226,28.269,16.175,40.605c0.313,0.489,0.672,0.946,0.989,1.426c1.644,2.477,3.332,4.918,5.152,7.282
		c0.676,0.879,1.418,1.703,2.117,2.566c1.59,1.961,3.18,3.918,4.883,5.793c0.652,0.719,1.351,1.39,2.019,2.094
		c1.891,2,3.801,3.977,5.809,5.871c0.293,0.278,0.61,0.535,0.906,0.809c23.371,21.687,54.062,36.285,83.636,40.523
		c0.317,0.043,0.63,0.062,0.938,0.062c3.195,0,5.989-2.347,6.454-5.606c0.515-3.574-1.969-6.882-5.539-7.394
		c-45.406-6.496-93.714-39.324-107.766-84.663c-0.934-3.059-1.714-6.18-2.336-9.367H230.98h102.148l81.054-185.64
		c4.652-10.633,15.148-17.5,26.75-17.5c4.031,0,7.961,0.82,11.687,2.453l2.723,1.207c7.074,3.066,12.562,8.77,15.414,16.035
		c2.852,7.274,2.699,15.207-0.43,22.355l-70.332,161.09v184.577c0,12.215-9.902,22.118-22.113,22.118H239.21l-6.754-38.649
		c-0.746-4.262-1.191-8.57-1.774-12.859c-2.148-15.847-15.734-28.062-32.171-28.062h-24.879c-8.71,0-17.965-1.378-27.374-3.965
		C145.519,379.198,144.781,378.972,144.042,378.75z"/>
	<path class="st0" d="M58.019,74.634c2.254,0,4.394-0.902,5.973-2.481c1.574-1.574,2.477-3.714,2.477-5.969
		c0-2.195-0.902-4.39-2.477-5.969c-3.156-3.152-8.785-3.152-11.942,0c-1.578,1.578-2.476,3.774-2.476,5.969
		c0,2.254,0.898,4.395,2.476,5.969C53.629,73.731,55.77,74.634,58.019,74.634z"/>
	<path class="st0" d="M139.675,40.731c2.191,0,4.336-0.785,6.023-2.477c3.266-3.266,3.266-8.613-0.054-11.937
		c-3.266-3.266-8.617-3.266-11.942,0c-3.266,3.324-3.266,8.671,0,11.996C135.394,39.946,137.53,40.731,139.675,40.731z"/>
	<path class="st0" d="M105.828,26.766c0.027,0,0.035,0,0.058,0c4.617,0,8.446-3.774,8.446-8.449
		c-0.055-4.672-3.829-8.446-8.504-8.446c-4.672,0-8.387,3.774-8.387,8.446C97.441,22.993,101.21,26.766,105.828,26.766z"/>
	<path class="st0" d="M72.042,40.79c2.137,0,4.336-0.789,5.969-2.476c3.321-3.266,3.321-8.618,0-11.942
		c-3.32-3.32-8.617-3.32-11.938,0c-3.324,3.324-3.324,8.676,0,11.942C67.706,40.001,69.902,40.79,72.042,40.79z"/>
	<path class="st0" d="M218.679,26.766c4.613,0,8.386-3.774,8.386-8.449c0-4.672-3.774-8.446-8.446-8.446
		c-4.675,0-8.445,3.774-8.445,8.446C210.175,22.993,214.003,26.766,218.679,26.766z"/>
	<path class="st0" d="M252.464,40.731c2.195,0,4.336-0.785,5.969-2.477c3.324-3.266,3.324-8.613,0-11.937
		c-3.266-3.266-8.618-3.266-11.938,0c-3.266,3.324-3.266,8.671,0,11.996C248.182,39.946,250.323,40.731,252.464,40.731z"/>
	<path class="st0" d="M184.831,40.79c2.141,0,4.336-0.789,5.969-2.476c3.324-3.266,3.324-8.618,0-11.942
		c-3.32-3.32-8.613-3.32-11.938,0c-3.32,3.324-3.32,8.676,0,11.942C180.495,40.001,182.694,40.79,184.831,40.79z"/>
	<path class="st0" d="M258.097,66.184c0,2.254,0.898,4.395,2.477,5.969c1.578,1.578,3.773,2.481,5.968,2.481
		c2.254,0,4.391-0.902,5.969-2.481c1.578-1.574,2.481-3.714,2.481-5.969c0-2.195-0.902-4.39-2.481-5.969
		c-3.152-3.152-8.781-3.152-11.937,0C258.995,61.794,258.097,63.989,258.097,66.184z"/>
	<path class="st0" d="M162.281,80.177c4.676,0,8.449-3.77,8.449-8.446s-3.773-8.446-8.449-8.446c-4.672,0-8.446,3.77-8.446,8.446
		S157.609,80.177,162.281,80.177z"/>
	<path class="st0" d="M162.281,115.372c4.676,0,8.449-3.774,8.449-8.446c0-4.676-3.773-8.45-8.449-8.45
		c-4.672,0-8.446,3.774-8.446,8.45C153.835,111.598,157.609,115.372,162.281,115.372z"/>
	<path class="st0" d="M162.281,150.566c2.195,0,4.394-0.902,5.973-2.48c1.574-1.578,2.476-3.774,2.476-5.965
		c0-2.199-0.902-4.394-2.476-5.973c-3.157-3.152-8.79-3.152-11.942,0c-1.578,1.578-2.477,3.774-2.477,5.973
		c0,2.191,0.898,4.386,2.477,5.965C157.886,149.665,160.086,150.566,162.281,150.566z"/>
</g>
</svg>
