<!--?xml version="1.0" encoding="utf-8"?-->
<!-- Generator: Adobe Illustrator 18.1.1, SVG Export Plug-In . SVG Version: 6.00 Build 0)  -->

<svg version="1.1" id="_x31_0" xmlns="http://www.w3.org/2000/svg" xmlns:xlink="http://www.w3.org/1999/xlink" x="0px" y="0px" viewBox="0 0 512 512" style="enable-background:new 0 0 512 512;" xml:space="preserve">
<style type="text/css">
	.st0{fill:#374149;}
</style>
<g>
	<path class="st0" d="M401.678,0H110.319C82.244,0,59.404,22.844,59.404,50.922v410.164c0,28.074,22.84,50.914,50.914,50.914
		h291.359c28.078,0,50.918-22.84,50.918-50.914V50.922C452.596,22.844,429.756,0,401.678,0z M110.319,50.922h291.359V215.84H110.322
		l-0.003-164.578V50.922z M110.322,461.086V248.074h290.63h0.726l0.004,213.008L110.322,461.086z"></path>
	<path class="st0" d="M284.311,190.598h60.347c4.149,0,7.543-3.394,7.543-7.543v-16.972c0-4.149-3.394-7.543-7.543-7.543h-60.347
		c-4.153,0-7.547,3.394-7.547,7.543v16.972C276.764,187.203,280.158,190.598,284.311,190.598z"></path>
	<path class="st0" d="M344.658,275.465h-60.347c-4.153,0-7.547,3.394-7.547,7.543v16.973c0,4.152,3.394,7.542,7.547,7.542h60.347
		c4.149,0,7.543-3.39,7.543-7.542v-16.973C352.201,278.859,348.807,275.465,344.658,275.465z"></path>
</g>
</svg>
