<?xml version="1.0" encoding="UTF-8" standalone="no"?>
<!DOCTYPE svg PUBLIC "-//W3C//DTD SVG 1.1//EN" "http://www.w3.org/Graphics/SVG/1.1/DTD/svg11.dtd">
<svg width="120.00" height="120.00" viewBox="0.00 0.00 500.00 500.00" xmlns="http://www.w3.org/2000/svg" xmlns:xlink="http://www.w3.org/1999/xlink">
<g stroke-linecap="round" id="レイヤー_1_2">
<path d="M131.50,281.50 C128.85,280.97 125.24,280.07 124.50,279.50 C123.78,278.93 124.48,276.22 124.50,275.50 C124.56,274.81 124.09,271.96 124.50,270.50 C124.77,269.58 130.57,258.92 131.50,256.50 C132.79,253.08 133.58,245.79 133.58,244.39 C133.58,243.36 132.80,237.13 131.50,234.50 C130.15,231.84 124.84,225.27 121.50,223.50 C118.84,222.15 113.21,221.47 108.44,221.43 C104.69,221.44 97.34,222.51 95.50,223.50 C94.22,224.19 91.57,226.51 91.50,226.50 C91.04,226.42 90.97,225.51 90.50,225.50 C89.76,225.46 89.23,226.35 88.50,226.50 C88.04,226.58 79.43,223.48 75.89,222.83 C72.33,222.23 66.39,223.42 64.50,224.50 C63.44,225.16 62.80,226.48 62.50,228.50 C62.10,231.57 61.31,238.84 62.05,241.23 C62.20,241.66 62.27,243.88 62.50,244.50 C62.61,244.78 78.45,260.34 84.48,266.66 C90.24,273.01 96.89,280.64 98.50,282.50" fill="none" stroke="rgb(0, 0, 0)" stroke-width="24.80" stroke-opacity="1.00" stroke-linejoin="round"/>
<path d="M91.50,226.50 C91.50,226.50 90.50,237.50 90.50,237.50" fill="none" stroke="rgb(0, 0, 0)" stroke-width="24.80" stroke-opacity="1.00" stroke-linejoin="round"/>
<path d="M390.50,302.50 C390.37,300.44 389.99,297.50 389.50,296.50 C388.57,294.63 382.86,292.57 381.50,291.50 C379.42,289.80 375.48,284.01 374.40,280.66 C372.26,273.81 372.67,263.95 372.50,263.50 C372.24,262.80 371.63,262.24 371.50,261.50 C371.43,261.08 372.60,257.54 373.02,255.94 C373.51,254.25 373.13,252.05 373.50,251.50 C373.56,251.41 382.15,249.28 384.45,249.28 C386.26,249.30 395.23,250.67 397.50,251.50 C401.02,252.84 405.50,256.96 406.86,260.01 C409.28,265.70 410.00,274.07 410.28,279.43 C410.33,281.22 411.54,282.03 411.50,282.50 C411.43,283.24 410.53,283.76 410.50,284.50 C410.48,284.98 410.82,285.98 411.50,287.50" fill="none" stroke="rgb(0, 0, 0)" stroke-width="24.80" stroke-opacity="1.00" stroke-linejoin="round"/>
<path d="M123.50,273.50 C122.65,274.76 120.25,278.47 119.45,279.19 C118.02,280.47 114.27,281.98 112.42,282.20 C110.28,282.40 100.13,281.97 99.50,282.50 C98.85,283.08 98.58,283.88 98.68,284.92 C98.78,285.82 99.52,286.60 99.50,287.50 C99.50,287.97 98.47,288.55 98.24,290.05 C97.85,292.24 92.93,298.60 91.26,300.55 C88.60,303.64 84.34,307.40 81.29,309.06 C77.64,311.06 65.83,323.96 60.34,330.28 C54.64,336.86 41.42,351.67 37.42,355.68 C32.60,360.50 23.23,368.10 21.50,369.50" fill="none" stroke="rgb(0, 0, 0)" stroke-width="24.80" stroke-opacity="1.00" stroke-linejoin="round"/>
<path d="M411.50,282.50 C411.50,282.50 416.50,284.50 416.50,284.50" fill="none" stroke="rgb(0, 0, 0)" stroke-width="24.80" stroke-opacity="1.00" stroke-linejoin="round"/>
<path d="M99.50,287.50 C109.19,287.29 117.88,286.35 125.29,283.59 C131.20,281.37 145.60,277.74 150.60,274.85 C154.41,272.61 169.11,260.91 174.72,256.31 C180.46,251.70 193.55,243.36 202.19,238.33 C221.49,227.25 239.08,215.56 252.35,206.84 C260.26,201.71 275.07,192.07 281.97,187.55 C290.62,181.78 301.46,173.17 302.26,172.66 C304.73,171.12 311.98,167.13 314.04,166.82 C314.86,166.71 317.74,164.30 321.54,162.61 C328.13,159.78 342.61,156.30 349.08,154.76 C357.31,152.97 375.48,149.36 381.81,148.43 C391.49,147.18 407.47,146.29 415.78,146.69 C425.80,147.33 439.80,148.95 444.37,150.87 C445.06,151.17 453.99,155.70 454.70,156.15 C457.24,157.79 460.86,163.97 462.76,167.35 C464.29,170.09 468.05,177.54 468.65,179.29 C470.06,183.54 470.15,198.28 471.43,205.51 C472.31,210.60 472.64,216.28 472.23,219.65 C471.43,225.81 466.70,238.91 462.84,246.11 C458.83,253.53 450.18,266.40 445.37,270.99 C442.64,273.56 436.25,277.90 432.56,279.82 C428.53,281.87 423.75,283.34 419.49,283.51 C418.06,283.71 414.96,285.30 413.48,286.60 C412.31,287.63 408.90,291.34 408.50,291.50 C407.88,291.75 406.00,291.57 404.14,292.59 C400.08,294.83 394.17,298.69 392.46,300.31 C390.39,302.30 385.65,310.30 385.50,310.50 C383.90,312.52 378.44,316.02 375.06,317.85 C370.39,320.35 365.21,322.95 361.60,324.21 C348.94,328.58 328.44,329.66 325.23,329.42 C323.94,329.30 322.21,330.74 321.50,330.50 C320.61,330.19 320.40,328.77 319.50,328.50 C318.79,328.28 318.24,329.38 317.50,329.50 C317.18,329.55 306.61,323.76 305.50,323.50 C304.44,323.26 299.65,323.51 299.50,323.50 C298.83,323.44 290.57,320.58 286.01,318.70 C282.99,317.42 278.96,312.96 276.74,311.74 C275.76,311.21 271.75,309.14 270.50,308.50" fill="none" stroke="rgb(0, 0, 0)" stroke-width="24.80" stroke-opacity="1.00" stroke-linejoin="round"/>
<path d="M389.50,296.50 C394.81,295.40 396.17,295.60 397.50,296.50" fill="none" stroke="rgb(0, 0, 0)" stroke-width="24.80" stroke-opacity="1.00" stroke-linejoin="round"/>
<path d="M155.50,314.50 C155.86,313.12 156.29,310.64 156.50,310.50 C157.05,310.13 159.06,310.46 160.47,309.71 C165.07,307.36 182.38,302.91 189.88,301.09 C195.42,299.81 208.99,299.18 215.48,298.86 C225.46,298.40 237.10,298.66 246.44,300.05 C248.18,300.28 249.74,301.95 250.50,302.50 C250.80,302.71 260.69,305.68 265.16,306.78 C269.80,307.90 274.26,307.95 276.50,307.50 C278.07,307.10 278.70,306.20 278.83,303.97 C279.06,299.64 281.14,292.28 283.72,289.20 C284.83,287.90 288.11,285.13 289.55,283.98 C291.25,282.58 292.84,282.54 293.50,282.50 C294.03,282.48 296.79,281.14 297.45,280.98 C300.29,280.29 310.31,281.10 312.95,281.66 C314.83,282.08 318.37,283.57 319.50,284.50 C321.07,285.87 322.56,288.79 322.95,291.17 C323.32,293.70 323.62,302.87 323.26,305.29 C322.78,308.21 318.50,318.44 318.50,318.50 C318.56,319.24 319.71,321.03 319.67,322.84 C319.65,323.93 319.54,327.36 319.50,328.50" fill="none" stroke="rgb(0, 0, 0)" stroke-width="24.80" stroke-opacity="1.00" stroke-linejoin="round"/>
<path d="M279.50,313.50 C280.46,312.11 280.54,310.87 279.59,308.83 C279.22,308.05 278.86,307.28 278.50,306.50" fill="none" stroke="rgb(0, 0, 0)" stroke-width="24.80" stroke-opacity="1.00" stroke-linejoin="round"/>
<path d="M297.50,322.50 C306.31,321.97 312.85,320.22 318.50,318.50" fill="none" stroke="rgb(0, 0, 0)" stroke-width="24.80" stroke-opacity="1.00" stroke-linejoin="round"/>
</g>
</svg>
